<?xml version="1.0" encoding="UTF-8"?>
<svg id="Layer_2" data-name="Layer 2" xmlns="http://www.w3.org/2000/svg" viewBox="0 0 383.57 383.57">
  <defs>
    <style>
      .cls-1 {
        fill: #d2ebff;
      }

      .cls-2 {
        fill: #dcdedc;
      }

      .cls-3 {
        fill: #ea7b0c;
      }

      .cls-4 {
        fill: #fd9827;
      }

      .cls-5 {
        fill: #ffe780;
      }

      .cls-6 {
        fill: #4c403f;
      }

      .cls-7 {
        fill: #eef9ff;
      }

      .cls-8 {
        fill: #605553;
      }

      .cls-9 {
        fill: #b4783b;
      }

      .cls-10 {
        fill: #fbbe2c;
      }
    </style>
  </defs>
  <g id="Layer_1-2" data-name="Layer 1">
    <rect class="cls-4" width="383.57" height="383.57"/>
    <rect class="cls-3" x="165.7" y="187.7" width="217.87" height="195.87"/>
    <path class="cls-3" d="m383.5,177.36v31.49c-.24.39-.65.77-.69,1.18-1.24,11.85-3.29,23.55-6.48,35.02-5.92,21.31-15.41,40.89-28.26,58.95-11.36,15.97-24.82,29.77-40.28,41.73-12.33,9.54-25.64,17.43-39.93,23.56-15.05,6.45-17.16-5.14-33.39-2.57-4.79.76-3.15-37.58-7.83-36.09-10.25,0-24.6,22.81-34.85,22.81-3.04-1.72-22.64,31.67-25.66,29.92-.44-1.67-1.8-2.65-2.93-3.78-10.8-10.83-21.63-21.63-32.43-32.46-1.2-1.21-2.76-2.22-2.86-4.2,3.41,1.05,6.88,1.82,10.42,2.26,1.93-.36,3.9-.61,5.8-1.09,10.32-2.62,18.77-11.28,18.89-24.75.15-16.35.06-32.71.03-49.06-.02-13.23-.11-26.46-.17-39.68.07-.21.11-.43.12-.65.04-12.72.08-25.45.12-38.17,15.46-5.32,25.81-15.8,31.09-31.19,1.8-5.25,2.54-10.8,2.55-16.39.05-29.44.09-58.87.14-88.31,3.75,2.9,7.21,6.11,10.52,9.5,6.95,7.13,14.2,13.95,21.66,20.54-1.78,5.58-4.34,11.06-4.42,16.97-.26,19.48-.19,38.97-.2,58.45,0,2.6-.1,5.3.52,7.78,2.54,10.23,9.12,16.85,19,20.3.02,13.56.05,27.11.07,40.67l-.13,1.13c-.89,6.81-.88,13.63,0,20.44.01,22.24,0,44.47.06,66.71,0,2.83-.16,5.66.81,8.49,3.96,11.5,12.35,17.02,24.03,18.31,1.81-.3,3.65-.49,5.43-.91,11.49-2.72,19.28-12.57,19.3-24.37.02-13.33.02-26.67,0-40-.03-16.45-.09-32.9-.14-49.34.07-.23.07-.45.02-.69,0-13.11,0-26.21,0-39.32.04-1.62.11-3.24.11-4.86.03-45,.05-89.99.08-134.99,1.19,1.09,2.43,2.13,3.58,3.28,23.37,23.35,46.72,46.71,70.09,70.06,1.22,1.22,2.25,2.71,4.07,3.17.49.85,1.15,1.64,1.45,2.56,3.84,11.49,6.67,23.22,8.59,35.2.66,4.14.03,8.52,2.12,12.41Z"/>
    <path class="cls-1" d="m172.84,55.21c7.74,0,15.49,0,23.23,0,.19.25.38.5.56.74,0,0,.26-.07.26-.07-.04,29.44-.08,58.87-.14,88.31-.01,5.59-.75,11.14-2.55,16.39-5.27,15.39-15.63,25.87-31.09,31.19-8.02,2.99-16.4,2.57-24.73,2.62.03-.2,0-.38-.09-.56,0-46.2.02-92.4.02-138.61,4.01.1,8.09-1.12,11.99.69-.03,21.09-.05,42.19-.1,63.28-.01,5.21,5.54,10.11,10.4,10.16,5.69.06,11.41-4.99,11.46-10.49.13-13.98-.02-27.96-.06-41.94.08-7,.16-14,.25-21.01.19-.23.39-.47.58-.7Z"/>
    <path class="cls-7" d="m229.07,85.92c3.12-4.97,5.72-10.22,9.66-14.72,7.74-8.87,17.15-14.92,28.36-18.3.58-.17,1.14-.4,1.71-.6,0,45.93-.02,91.86-.03,137.79-8.28.13-16.57.72-24.81-.66-9.88-3.45-16.45-10.07-18.99-20.3-.62-2.48-.52-5.18-.52-7.78,0-19.48-.05-38.97.2-58.45.08-5.91,2.64-11.39,4.42-16.97Z"/>
    <path class="cls-1" d="m268.78,190.09c0-45.93.02-91.86.03-137.79,8.18-1.84,16.43-2.73,24.8-1.6-.02,45-.05,89.99-.08,134.99,0,1.62-.07,3.24-.11,4.86-8.19.04-16.38.08-24.58.12.04-.2.02-.39-.07-.58Z"/>
    <path class="cls-8" d="m126.35,342.05c-8.59-5.49-13.18-13.04-13.1-23.52.18-22.3.04-44.6.04-66.89.52-6.76.5-13.52.01-20.28.06-.43.13-.85.2-1.28,8.23-.11,16.46-.21,24.7-.32,0,0,.19.32.19.32-.02,38.37-.04,76.73-.06,115.1-3.54-.45-7.01-1.22-10.42-2.26,0,0,0,.1,0,.1-.3-.68-.95-.79-1.55-.97Z"/>
    <path class="cls-8" d="m243.91,231.22c.04-.38.08-.75.13-1.13,8.25,0,16.5-.02,24.75-.02,0,38.37,0,76.74.01,115.11-11.67-1.3-20.07-6.82-24.03-18.31-.97-2.83-.81-5.66-.81-8.49-.06-22.24-.05-44.47-.06-66.71.36-6.81.34-13.63,0-20.44Z"/>
    <path class="cls-6" d="m268.8,345.18c0-38.37,0-76.74-.01-115.11v-.27c8.01.07,16.01.14,24.02.21.19.18.39.35.58.53.05,16.45.11,32.9.14,49.34.02,13.33.02,26.67,0,40-.02,11.81-7.81,21.65-19.3,24.37-1.78.42-3.62.61-5.43.91Z"/>
    <path class="cls-6" d="m138.33,345.18c.02-38.37.04-76.73.06-115.1,7.98,0,15.97-.02,23.95-.02.18.18.36.36.54.54.06,13.23.15,26.46.17,39.68.03,16.35.12,32.71-.03,49.06-.13,13.48-8.57,22.14-18.89,24.75-1.9.48-3.87.73-5.8,1.09Z"/>
    <path class="cls-5" d="m268.79,230.07c-8.25,0-16.5.01-24.75.02-.02-13.56-.05-27.11-.07-40.67,8.24,1.38,16.53.79,24.81.66.08.19.11.38.07.58-.02,13.05-.03,26.09-.05,39.14v.27Z"/>
    <path class="cls-10" d="m268.79,229.8c.02-13.05.03-26.09.05-39.14,8.19-.04,16.38-.08,24.58-.12,0,13.1,0,26.21,0,39.32-.21,0-.41.05-.6.15-8.01-.07-16.01-.14-24.02-.21Z"/>
    <path class="cls-10" d="m162.34,230.06c-7.98,0-15.97.02-23.95.02,0,0-.19-.32-.19-.32.06-11.79.13-23.58.19-35.37,8.33-.05,16.71.37,24.73-2.62-.04,12.72-.08,25.45-.11,38.17-.23-.02-.45.02-.66.11Z"/>
    <path class="cls-9" d="m243.91,231.22c.33,6.81.35,13.63,0,20.44-.87-6.81-.88-13.63,0-20.44Z"/>
    <path class="cls-8" d="m162.34,230.06c.21-.09.43-.13.66-.11,0,.22-.05.44-.12.65-.18-.18-.36-.36-.54-.54Z"/>
    <path class="cls-8" d="m292.81,230.02c.19-.11.39-.16.6-.15.05.23.05.46-.02.68-.19-.18-.39-.35-.58-.53Z"/>
    <path class="cls-7" d="m138.33,55.22c0,46.2-.02,92.4-.02,138.61-8.32.41-16.61.44-24.78-1.58-3.47-1.52-6.93-3.03-10.4-4.55-6.19-4.89-12.39-9.75-16.48-16.73-3.78-6.44-6.72-13.17-6.76-20.75-.13-30.81-.12-61.61-.23-92.42,0-2.16.75-2.75,2.82-2.72,7.11.12,14.22.09,21.33.11,0,20.57,0,41.15.03,61.72,0,2.08-.19,4.18.94,6.14,2.6,4.49,7.71,7.22,11.94,6.26,5.73-1.3,9.52-5.77,9.56-12.02.09-13.96-.05-27.93-.09-41.89.05-5.85.17-11.71.1-17.56-.03-2.07.55-2.91,2.72-2.78,3.1.18,6.22.11,9.34.15Z"/>
    <path class="cls-3" d="m126.17,75.41c.05,13.96.18,27.93.09,41.89-.04,6.25-3.82,10.72-9.56,12.02-4.23.96-9.34-1.78-11.94-6.26-1.13-1.96-.94-4.06-.94-6.14-.03-20.57-.02-41.15-.03-61.72,7.46,6.74,14.91,13.48,22.37,20.22Z"/>
    <path class="cls-3" d="m172.01,76.92c.04,13.98.19,27.96.06,41.94-.05,5.5-5.77,10.55-11.46,10.49-4.86-.05-10.41-4.95-10.4-10.16.05-21.09.07-42.19.1-63.28,6.44,5.5,12.03,11.88,18.14,17.72,1.17,1.12,2.37,2.2,3.55,3.29Z"/>
    <path class="cls-5" d="m113.53,192.25c8.16,2.02,16.46,1.99,24.78,1.58.09.18.12.36.09.56-.06,11.79-.13,23.58-.19,35.37-8.23.11-16.46.21-24.7.32-.12-10.61-.25-21.23-.37-31.84.13-2,.27-3.99.4-5.99Z"/>
    <path class="cls-3" d="m113.53,192.25c-.13,2-.27,3.99-.4,5.99-3.97-2.91-7.74-6-10-10.54,3.47,1.52,6.93,3.03,10.4,4.55Z"/>
    <path class="cls-9" d="m113.3,231.35c.49,6.76.51,13.52-.01,20.28-.7-6.76-.71-13.52.01-20.28Z"/>
    <path class="cls-3" d="m126.35,342.05c.61.18,1.26.29,1.55.97-.52-.32-1.04-.65-1.55-.97Z"/>
    <path class="cls-2" d="m172.84,55.21c-.19.23-.39.47-.58.7-.09-.47.1-.71.58-.7Z"/>
    <path class="cls-2" d="m196.63,55.96c-.19-.25-.38-.5-.56-.74.51,0,.66.28.56.74Z"/>
  </g>
</svg>